<svg width="24" height="26" viewBox="0 0 24 26" fill="none" xmlns="http://www.w3.org/2000/svg">
<path fill-rule="evenodd" clip-rule="evenodd" d="M12.0002 10.3333C13.3262 10.3333 14.598 9.80653 15.5357 8.86885C16.4734 7.93117 17.0002 6.6594 17.0002 5.33331C17.0002 4.00723 16.4734 2.73546 15.5357 1.79778C14.598 0.860097 13.3262 0.333313 12.0002 0.333313C10.6741 0.333313 9.40231 0.860097 8.46463 1.79778C7.52695 2.73546 7.00016 4.00723 7.00016 5.33331C7.00016 6.6594 7.52695 7.93117 8.46463 8.86885C9.40231 9.80653 10.6741 10.3333 12.0002 10.3333ZM0.333496 25.3333C0.333496 23.8012 0.635263 22.2841 1.22157 20.8687C1.80787 19.4532 2.66723 18.1671 3.75058 17.0837C4.83393 16.0004 6.12006 15.141 7.53552 14.5547C8.95099 13.9684 10.4681 13.6666 12.0002 13.6666C13.5323 13.6666 15.0493 13.9684 16.4648 14.5547C17.8803 15.141 19.1664 16.0004 20.2497 17.0837C21.3331 18.1671 22.1925 19.4532 22.7788 20.8687C23.3651 22.2841 23.6668 23.8012 23.6668 25.3333H0.333496Z" fill="#5B6871"/>
</svg>
